<svg width="387" height="239" xmlns="http://www.w3.org/2000/svg" xmlns:xlink="http://www.w3.org/1999/xlink" xml:space="preserve" overflow="hidden"><defs><clipPath id="clip0"><rect x="59" y="118" width="386" height="237"/></clipPath><clipPath id="clip1"><rect x="59" y="118" width="386" height="237"/></clipPath><clipPath id="clip2"><rect x="59" y="118" width="386" height="237"/></clipPath></defs><g transform="translate(-58 -117)"><g><g clip-path="url(#clip0)"><g clip-path="url(#clip1)"><g clip-path="url(#clip2)"><path d="M0 32.2392C-4.02782e-15 14.434 14.434 0 32.2392 0L42.1828 0 105.457 0 220.858 0C238.663-4.02784e-15 253.097 14.434 253.097 32.2392L253.097 112.835 253.097 161.192 253.097 161.192C253.097 178.997 238.663 193.431 220.858 193.431L105.457 193.431 53.444 224.057 42.1828 193.431 32.2392 193.431C14.434 193.431 0 178.997 0 161.192L0 161.192 0 112.835Z" stroke="#042433" stroke-width="2.58482" stroke-linecap="butt" stroke-linejoin="miter" stroke-miterlimit="8" stroke-opacity="1" fill="none" fill-rule="evenodd" transform="matrix(-1 0 0 1.00024 443.708 128.988)"/><path d="M339.941 70.6081C335.926 70.6081 333.576 70.694 332.886 70.8663 332.197 71.0386 331.852 71.469 331.852 72.1574L331.852 100.387C331.852 101.292 331.902 101.8 331.999 101.908 332.096 102.017 332.542 102.071 333.334 102.071L350.724 102.071C357.171 102.071 361.222 101.746 362.881 101.095 364.537 100.444 366.105 98.909 367.581 96.4899 369.059 94.0707 369.797 90.5413 369.797 85.9018 369.797 81.2972 369.188 77.8975 367.971 75.7025 366.752 73.5076 364.776 72.1098 362.041 71.5091 359.303 70.9083 355.014 70.6081 349.173 70.6081ZM265.698 56.4594 274.258 56.4594C275.527 56.4594 276.36 56.8139 276.759 57.5228 277.157 58.2315 277.358 59.0001 277.358 59.8283L277.358 147.077C277.358 150.625 275.538 152.399 271.9 152.399L263.744 152.399C262.579 152.399 261.793 152.035 261.386 151.305 260.981 150.576 260.778 149.795 260.778 148.963L260.778 61.6473C260.778 58.1889 262.418 56.4594 265.698 56.4594ZM166.552 56.4594C164.755 56.4594 163.856 57.4925 163.856 59.5586L163.856 147.212C163.856 149.189 164.394 150.525 165.47 151.221 166.546 151.917 167.496 152.265 168.321 152.265 172.626 152.444 177.605 152.557 183.258 152.602 188.911 152.646 194.889 152.669 201.194 152.669 215.986 152.669 224.384 152.318 226.389 151.617 228.395 150.915 230.29 149.275 232.078 146.694 233.864 144.114 234.758 141.884 234.758 140.003 234.758 137.802 233.646 136.701 231.423 136.701 227.811 137.034 223.578 137.308 218.725 137.523 213.871 137.739 207.893 137.847 200.79 137.847 197.06 137.847 193.32 138.274 189.568 139.127 185.816 139.98 183.626 139.958 182.997 139.06 181.875 138.161 181.156 137.566 180.841 137.274 180.526 136.982 180.368 136.23 180.368 135.017L180.368 62.9947C180.368 60.5643 179.919 58.8676 179.019 57.9043 178.12 56.941 176.638 56.4594 174.572 56.4594ZM349.173 56.1227C360.598 56.1227 368.563 56.826 373.072 58.2328 377.58 59.6396 380.968 62.6248 383.241 67.1888 385.511 71.7527 386.646 77.586 386.646 84.6891 386.646 91.272 385.49 97.241 383.178 102.596 380.865 107.951 377.569 111.561 373.291 113.424 369.013 115.288 362.075 116.22 352.477 116.22L333.47 116.22C332.86 116.22 332.462 116.319 332.272 116.518 332.083 116.717 331.988 117.336 331.988 118.376L331.988 148.02C331.988 149.497 331.684 150.597 331.077 151.318 330.467 152.039 329.379 152.399 327.809 152.399L318.508 152.399C317.351 152.399 316.57 152.103 316.158 151.51 315.749 150.917 315.542 150.113 315.542 149.098L315.542 60.2324C315.542 58.0723 316.475 56.9639 318.336 56.9074 320.199 56.851 324.238 56.706 330.45 56.4727 336.662 56.2393 342.905 56.1227 349.173 56.1227ZM56.2668 55.7184C50.5031 55.7184 46.2427 56.7172 43.4857 58.7149 40.7288 60.7127 39.3502 65.2385 39.3502 72.2923L39.3502 148.963C39.3502 151.254 40.3837 152.399 42.4505 152.399L45.8205 152.399C48.9475 152.399 51.223 151.844 52.6474 150.733 54.0719 149.622 54.7842 147.617 54.7842 144.719L54.7842 72.9661C54.7842 71.8397 54.907 71.1313 55.1528 70.8411 55.3985 70.551 56.0396 70.4058 57.0757 70.4058 58.345 70.4058 59.2809 70.7071 59.8836 71.3096 60.4863 71.9121 61.2977 73.3559 62.3179 75.6409L88.3363 138.998C90.5631 144.697 92.9513 148.49 95.5007 150.377 98.0502 152.264 102.451 153.208 108.702 153.208 115.795 153.208 120.477 151.883 122.749 149.233 125.021 146.583 126.157 142.675 126.157 137.51L126.157 59.8283C126.157 58.9102 125.888 58.1193 125.348 57.4554 124.809 56.7915 123.865 56.4594 122.518 56.4594L118.811 56.4594C115.55 56.4594 113.331 57.0914 112.153 58.3549 110.975 59.6185 110.387 61.5019 110.387 64.0053L110.387 134.882C110.387 136.275 110.246 137.252 109.965 137.813 109.685 138.375 109.039 138.655 108.028 138.655 106.852 138.655 105.98 138.372 105.414 137.805 104.847 137.239 104.095 135.937 103.158 133.9L77.2073 70.5786C75.0007 64.8271 72.6727 60.9126 70.2234 58.8348 67.7738 56.7573 63.1218 55.7184 56.2668 55.7184ZM52.2819 6.89286 57.7221 6.89286 115.226 6.89286 216.507 6.89286C234.674 6.89286 249.403 21.6158 249.403 39.7772L249.403 121.986 249.403 171.311C249.403 189.472 234.674 204.195 216.507 204.195L115.226 204.195 67.9565 235.434 57.7221 204.195 52.2819 204.195C34.114 204.195 19.3862 189.472 19.3862 171.311L19.3862 121.986 19.3862 39.7772C19.3862 21.6158 34.114 6.89286 52.2819 6.89286Z" fill="#000000" fill-rule="evenodd" fill-opacity="1" transform="matrix(1 0 0 1.00024 39.6138 111.105)"/></g></g></g></g></g></svg>