<svg width="240" height="240" xmlns="http://www.w3.org/2000/svg" xmlns:xlink="http://www.w3.org/1999/xlink" xml:space="preserve" overflow="hidden"><g transform="translate(-688 -116)"><g><g><g><g><path d="M689.676 157.043C689.676 135.301 707.301 117.676 729.045 117.676L886.504 117.676C908.248 117.676 925.873 135.301 925.873 157.043L925.873 314.506C925.873 336.248 908.248 353.873 886.504 353.873L729.045 353.873C707.301 353.873 689.676 336.248 689.676 314.506Z" stroke="#000000" stroke-width="1.35227" stroke-linecap="butt" stroke-linejoin="miter" stroke-miterlimit="8" stroke-opacity="1" fill="none" fill-rule="evenodd"/><g><g><g><path d="M0 15.4356C-1.92845e-15 6.91074 6.91074 0 15.4356 0L20.1964 0 50.4912 0 105.743 0C114.268-1.92847e-15 121.179 6.91074 121.179 15.4356L121.179 54.0233 121.179 77.1765 121.179 77.176C121.179 85.7007 114.268 92.6117 105.743 92.6117L50.4912 92.6117 25.5881 107.275 20.1964 92.6117 15.4356 92.6117C6.91074 92.6117 0 85.7007 0 77.176L0 77.1765 0 54.0233Z" stroke="#042433" stroke-width="1.23757" stroke-linecap="butt" stroke-linejoin="miter" stroke-miterlimit="8" stroke-opacity="1" fill="none" fill-rule="evenodd" transform="matrix(-1 0 0 1.00129 899.337 184.02)"/><path d="M162.758 33.806C160.836 33.806 159.711 33.8472 159.381 33.9296 159.051 34.0122 158.886 34.2182 158.886 34.5478L158.886 48.0638C158.886 48.497 158.909 48.74 158.956 48.7923 159.002 48.8441 159.216 48.8702 159.595 48.8702L167.921 48.8702C171.007 48.8702 172.948 48.7143 173.741 48.4028 174.535 48.0909 175.286 47.3561 175.992 46.1977 176.699 45.0396 177.053 43.3498 177.053 41.1284 177.053 38.9238 176.761 37.296 176.179 36.2451 175.595 35.1943 174.649 34.5251 173.339 34.2374 172.028 33.9498 169.975 33.806 167.178 33.806ZM127.212 27.0318 131.31 27.0318C131.918 27.0318 132.317 27.2016 132.508 27.541 132.699 27.8803 132.795 28.2483 132.795 28.6448L132.795 70.4183C132.795 72.1171 131.923 72.9664 130.181 72.9664L126.277 72.9664C125.719 72.9664 125.342 72.7919 125.147 72.4426 124.954 72.0933 124.857 71.7196 124.857 71.3211L124.857 29.5157C124.857 27.8599 125.641 27.0318 127.212 27.0318ZM79.7422 27.0318C78.8821 27.0318 78.4517 27.5265 78.4517 28.5157L78.4517 70.4827C78.4517 71.4293 78.709 72.0689 79.2242 72.402 79.7395 72.7351 80.1943 72.9019 80.5896 72.9019 82.6505 72.988 85.0345 73.0417 87.7409 73.0633 90.4477 73.0845 93.31 73.0953 96.3282 73.0953 103.411 73.0953 107.431 72.9276 108.391 72.5918 109.352 72.256 110.259 71.4703 111.115 70.2348 111.97 68.9997 112.398 67.9314 112.398 67.0312 112.398 65.9774 111.866 65.4504 110.802 65.4504 109.073 65.6096 107.046 65.7407 104.722 65.844 102.398 65.9472 99.5358 65.999 96.1349 65.999 94.3494 65.999 92.5586 66.2032 90.7623 66.6116 88.9656 67.0204 87.9171 67.0096 87.616 66.5796 87.0787 66.1491 86.7348 65.8642 86.5838 65.7245 86.4328 65.5848 86.3575 65.2246 86.3575 64.644L86.3575 30.1609C86.3575 28.9972 86.142 28.1848 85.7115 27.7237 85.2811 27.2624 84.5711 27.0318 83.5822 27.0318ZM167.178 26.8707C172.648 26.8707 176.462 27.2074 178.621 27.8809 180.779 28.5545 182.401 29.9838 183.489 32.1689 184.577 34.354 185.12 37.1469 185.12 40.5478 185.12 43.6995 184.566 46.5574 183.46 49.1213 182.352 51.6852 180.774 53.4134 178.726 54.3059 176.678 55.198 173.356 55.6442 168.76 55.6442L159.66 55.6442C159.368 55.6442 159.177 55.692 159.087 55.7871 158.996 55.8822 158.951 56.1788 158.951 56.6765L158.951 70.8699C158.951 71.5771 158.805 72.1032 158.514 72.4485 158.222 72.7937 157.702 72.9664 156.95 72.9664L152.497 72.9664C151.943 72.9664 151.569 72.8244 151.372 72.5404 151.176 72.2564 151.076 71.8719 151.076 71.3856L151.076 28.8383C151.076 27.8041 151.523 27.2734 152.414 27.2464 153.306 27.2194 155.24 27.1499 158.214 27.0382 161.189 26.9265 164.177 26.8707 167.178 26.8707ZM26.9397 26.6771C24.1801 26.6771 22.1403 27.1553 20.8203 28.1117 19.5003 29.0683 18.8403 31.2352 18.8403 34.6124L18.8403 71.3211C18.8403 72.4178 19.3351 72.9664 20.3246 72.9664L21.9381 72.9664C23.4352 72.9664 24.5247 72.7004 25.2067 72.1685 25.8888 71.6367 26.2298 70.677 26.2298 69.2891L26.2298 34.935C26.2298 34.3957 26.2886 34.0565 26.4063 33.9176 26.5239 33.7787 26.8308 33.7092 27.3269 33.7092 27.9347 33.7092 28.3828 33.8534 28.6713 34.1419 28.9599 34.4304 29.3484 35.1216 29.8368 36.2157L42.294 66.5503C43.3602 69.2787 44.5036 71.0948 45.7244 71.9982 46.945 72.9019 49.0519 73.3536 52.0445 73.3536 55.4405 73.3536 57.6825 72.7194 58.7702 71.4505 59.8583 70.1816 60.402 68.3105 60.402 65.8376L60.402 28.6448C60.402 28.2053 60.273 27.8266 60.0148 27.5087 59.7565 27.1909 59.3048 27.0318 58.6598 27.0318L56.8852 27.0318C55.3237 27.0318 54.2608 27.3344 53.6969 27.9394 53.133 28.5444 52.8513 29.4461 52.8513 30.6448L52.8513 64.5796C52.8513 65.2463 52.7842 65.7137 52.6498 65.9828 52.5151 66.2514 52.2058 66.3858 51.7217 66.3858 51.1587 66.3858 50.7418 66.2501 50.4704 65.9787 50.1991 65.7074 49.8389 65.0844 49.3904 64.1094L36.9656 33.7919C35.9092 31.0382 34.7945 29.164 33.6218 28.1692 32.449 27.1745 30.2217 26.6771 26.9397 26.6771ZM25.0317 3.30019 27.6364 3.30019 55.1682 3.30019 103.66 3.30019C112.358 3.30019 119.41 10.3493 119.41 19.0447L119.41 58.4051 119.41 82.0208C119.41 90.7163 112.358 97.7653 103.66 97.7653L55.1682 97.7653 32.5364 112.722 27.6364 97.7653 25.0317 97.7653C16.3332 97.7653 9.28177 90.7163 9.28177 82.0208L9.28177 58.4051 9.28177 19.0447C9.28177 10.3493 16.3332 3.30019 25.0317 3.30019Z" fill="#000000" fill-rule="evenodd" fill-opacity="1" transform="matrix(1 0 0 1.00129 705.863 175.449)"/></g></g></g></g></g></g></g></g></svg>